<?xml version="1.0" standalone="no"?>
<!DOCTYPE svg PUBLIC "-//W3C//DTD SVG 20010904//EN"
 "http://www.w3.org/TR/2001/REC-SVG-20010904/DTD/svg10.dtd">
<svg version="1.0" xmlns="http://www.w3.org/2000/svg"
 width="800.000000pt" height="800.000000pt" viewBox="0 0 800.000000 800.000000"
 preserveAspectRatio="xMidYMid meet">

<g transform="translate(0.000000,800.000000) scale(0.100000,-0.100000)"
fill="#000000" stroke="none">
<path d="M3490 6753 c-1204 -13 -2210 -74 -2539 -155 -300 -73 -546 -276 -673
-556 -109 -240 -181 -816 -209 -1683 -26 -792 37 -1754 146 -2208 97 -403 380
-676 791 -761 668 -139 3224 -190 4964 -100 499 26 876 64 1058 106 387 90
663 366 758 759 107 447 171 1420 145 2203 -28 862 -96 1413 -204 1669 -95
226 -293 424 -517 518 -195 83 -528 127 -1240 165 -484 26 -1631 52 -2070 48
-113 -2 -297 -4 -410 -5z m808 -2198 c524 -302 952 -552 952 -555 0 -4 -1737
-1012 -1972 -1143 l-68 -39 0 1182 0 1182 68 -39 c38 -21 497 -285 1020 -588z"/>
</g>
</svg>
