<?xml version="1.0" encoding="UTF-8"?>
<svg xmlns="http://www.w3.org/2000/svg" xmlns:xlink="http://www.w3.org/1999/xlink" width="256px" height="256px" viewBox="0 0 192 192" version="1.1">
<g id="surface1">
<path style=" stroke:none;fill-rule:nonzero;fill:rgb(0%,0%,0%);fill-opacity:1;" d="M 186.574219 50.496094 C 184.402344 42.363281 177.996094 35.957031 169.859375 33.78125 C 155.121094 29.832031 96 29.832031 96 29.832031 C 96 29.832031 36.878906 29.832031 22.140625 33.78125 C 14.003906 35.957031 7.597656 42.363281 5.425781 50.496094 C 1.472656 65.238281 1.472656 96 1.472656 96 C 1.472656 96 1.472656 126.761719 5.425781 141.503906 C 7.597656 149.636719 14.003906 156.042969 22.140625 158.21875 C 36.878906 162.167969 96 162.167969 96 162.167969 C 96 162.167969 155.121094 162.167969 169.859375 158.21875 C 177.996094 156.042969 184.402344 149.636719 186.574219 141.503906 C 190.527344 126.761719 190.527344 96 190.527344 96 C 190.527344 96 190.527344 65.238281 186.574219 50.496094 Z M 77.09375 124.359375 L 77.09375 67.640625 L 126.210938 96 Z M 77.09375 124.359375 "/>
</g>
</svg>